<svg width="1024" height="1024" viewBox="0 0 1024 1024" fill="none" xmlns="http://www.w3.org/2000/svg">
<g id="grammatical_elements/can">
<g id="can">
<path id="can_2" d="M128.008 541.246C128.008 517.762 132.787 497.282 142.344 479.806C151.902 462.056 165.146 448.403 182.076 438.845C199.006 429.015 218.394 424.1 240.24 424.1C268.366 424.1 291.577 431.199 309.873 445.399C328.441 459.326 340.866 478.987 347.147 504.382H285.296C282.02 494.552 276.422 486.906 268.503 481.444C260.857 475.71 251.299 472.842 239.83 472.842C223.446 472.842 210.475 478.85 200.918 490.865C191.36 502.607 186.582 519.401 186.582 541.246C186.582 562.819 191.36 579.613 200.918 591.628C210.475 603.37 223.446 609.241 239.83 609.241C263.041 609.241 278.197 598.864 285.296 578.111H347.147C340.866 602.687 328.441 622.212 309.873 636.684C291.304 651.157 268.093 658.393 240.24 658.393C218.394 658.393 199.006 653.615 182.076 644.057C165.146 634.227 151.902 620.573 142.344 603.097C132.787 585.347 128.008 564.73 128.008 541.246ZM374.411 540.427C374.411 517.489 378.917 497.146 387.928 479.396C397.212 461.647 409.637 447.993 425.202 438.436C441.04 428.878 458.653 424.1 478.041 424.1C494.971 424.1 509.717 427.513 522.278 434.34C535.113 441.166 545.353 449.768 552.999 460.145V427.786H610.753V654.707H552.999V621.529C545.626 632.179 535.386 641.054 522.278 648.153C509.444 654.98 494.562 658.393 477.632 658.393C458.517 658.393 441.04 653.478 425.202 643.648C409.637 633.817 397.212 620.027 387.928 602.278C378.917 584.255 374.411 563.638 374.411 540.427ZM552.999 541.246C552.999 527.32 550.268 515.441 544.807 505.611C539.345 495.507 531.972 487.861 522.688 482.673C513.404 477.212 503.437 474.481 492.787 474.481C482.137 474.481 472.307 477.075 463.295 482.263C454.284 487.452 446.911 495.098 441.177 505.201C435.715 515.032 432.985 526.774 432.985 540.427C432.985 554.081 435.715 566.096 441.177 576.473C446.911 586.576 454.284 594.359 463.295 599.82C472.58 605.281 482.41 608.012 492.787 608.012C503.437 608.012 513.404 605.418 522.688 600.23C531.972 594.768 539.345 587.122 544.807 577.292C550.268 567.188 552.999 555.173 552.999 541.246ZM792.509 424.509C819.543 424.509 841.388 433.111 858.046 450.314C874.703 467.245 883.031 491.002 883.031 521.585V654.707H825.687V529.368C825.687 511.345 821.181 497.555 812.17 487.998C803.159 478.167 790.87 473.252 775.305 473.252C759.467 473.252 746.906 478.167 737.622 487.998C728.61 497.555 724.105 511.345 724.105 529.368V654.707H666.76V427.786H724.105V456.049C731.751 446.218 741.445 438.572 753.187 433.111C765.202 427.376 778.309 424.509 792.509 424.509Z" fill="#50264B"/>
</g>
</g>
</svg>
