<svg width="1024" height="1024" viewBox="0 0 1024 1024" fill="none" xmlns="http://www.w3.org/2000/svg">
<g id="pronouns/her2">
<g id="her2">
<path id="Vector" d="M267.68 753.209L98.1401 913.587L121.574 938.411L291.114 778.033L267.68 753.209Z" fill="#231F20"/>
<path id="Vector_2" d="M311.764 828.866L350.695 698.408L218.238 729.909L311.764 828.866Z" fill="#231F20"/>
<path id="Vector_3" d="M832.683 388.483L755.015 370.421L710.979 371.625L666.931 370.421L589.263 388.483C589.263 388.483 591.575 347.024 596.837 286.009C599.113 259.662 592.454 231.317 593.803 194.205C598.367 68.6356 710.979 66.4561 710.979 66.4561C710.979 66.4561 823.64 68.6356 828.143 194.205C829.492 231.317 822.845 259.662 825.109 286.009C830.383 347.024 832.683 388.483 832.683 388.483Z" fill="#9E5C26"/>
<path id="Vector_4" d="M847.493 591.912C835.923 636.321 832.516 682.463 837.438 728.09L851.094 833.754H572.934L586.577 728.09C591.51 682.464 588.107 636.321 576.534 591.912C544.095 592.189 511.414 579.606 490.438 552.693C490.438 552.693 505.827 507.477 521.432 475.856C537.038 444.235 562.759 407.677 574.945 396.021C587.131 384.364 650.084 367.783 650.084 367.783H773.943C773.943 367.783 836.885 384.364 849.083 396.021C861.281 407.677 886.989 444.187 902.595 475.856C918.201 507.525 933.59 552.705 933.59 552.705C912.614 579.606 879.933 592.189 847.493 591.912Z" fill="#A9D7F3"/>
<path id="Vector_5" d="M795.437 220.913C795.534 237.025 792.945 283.529 784.263 301.784C775.581 320.039 755.363 347.096 755.363 347.096V364.665L765.177 367.784C765.177 367.784 777.435 391.072 770.969 406.016C764.503 420.959 752.04 445.09 711.038 445.09C670.037 445.09 657.562 421.007 651.096 406.016C644.629 391.024 656.887 367.784 656.887 367.784L666.701 364.665V347.096C666.701 347.096 646.423 320.015 637.802 301.784C629.18 283.553 626.543 237.025 626.627 220.913C626.501 209.983 625.29 199.092 623.015 188.401C662.559 182.38 692.855 163.054 711.098 126.339C729.377 163.054 759.626 182.428 799.17 188.401C796.854 199.088 795.604 209.979 795.437 220.913Z" fill="#FFEEC3"/>
<path id="Vector_6" d="M501.299 568.275C522.408 583.219 545.384 589.493 568.901 590.131L553.006 662.38L585.217 706.837L579.834 775.739C579.834 775.739 488.463 712.569 484.02 684.296C476.687 637.791 501.299 568.275 501.299 568.275Z" fill="#FFEEC3"/>
<path id="Vector_7" d="M920.659 568.275C899.502 583.219 876.623 589.493 853.058 590.131L868.953 662.38L836.79 706.837L842.16 775.739C842.16 775.739 933.543 712.569 937.987 684.296C945.26 637.791 920.659 568.275 920.659 568.275Z" fill="#FFEEC3"/>
<path id="Vector_8" d="M666.64 361.594C668.386 370.842 586.95 378.319 565.624 404.112C539.988 435.131 483.26 542.903 491.231 556.498C503.369 577.209 536.893 590.13 571.633 590.13" stroke="#231F20" stroke-width="13.6411" stroke-miterlimit="10"/>
<path id="Vector_9" d="M578.57 507.007C578.57 507.007 564.457 548.105 574.548 584.398C588.769 635.49 592.08 682.091 585.277 740.938C577.98 804.047 574.163 830.25 574.163 830.25" stroke="#231F20" stroke-width="13.6411" stroke-miterlimit="10"/>
<path id="Vector_10" d="M501.19 571.768C501.19 571.768 472.435 663.006 489.257 692.869C510.281 730.198 581.073 776.534 581.073 776.534" stroke="#231F20" stroke-width="13.6411" stroke-miterlimit="10"/>
<path id="Vector_11" d="M568.901 590.131C568.901 590.131 550.778 655.781 553.006 662.38C555.86 670.809 588.914 711.485 588.914 711.485" stroke="#231F20" stroke-width="13.6411" stroke-miterlimit="10"/>
<path id="Vector_12" d="M666.642 388.495V347.097" stroke="#231F20" stroke-width="13.6411" stroke-miterlimit="10"/>
<path id="Vector_13" d="M757.423 388.495V347.097" stroke="#231F20" stroke-width="13.6411" stroke-miterlimit="10"/>
<path id="Vector_14" d="M757.411 361.594C755.665 370.842 837.102 378.319 858.428 404.112C884.064 435.131 940.792 542.903 932.82 556.498C920.683 577.209 887.159 590.13 852.419 590.13" stroke="#231F20" stroke-width="13.6411" stroke-miterlimit="10"/>
<path id="Vector_15" d="M757.411 361.594C763.578 366.436 768.331 372.846 771.172 380.155C774.013 387.463 774.837 395.401 773.558 403.137C767.032 444.729 712.026 445.102 712.026 445.102C712.026 445.102 657.009 444.729 650.482 403.137C649.203 395.401 650.028 387.463 652.868 380.155C655.709 372.846 660.462 366.436 666.63 361.594" stroke="#231F20" stroke-width="13.6411" stroke-miterlimit="10"/>
<path id="Vector_16" d="M845.495 507.007C845.495 507.007 859.608 548.105 849.517 584.398C835.296 635.49 831.984 682.091 838.788 740.938C846.085 804.047 849.902 830.25 849.902 830.25" stroke="#231F20" stroke-width="13.6411" stroke-miterlimit="10"/>
<path id="Vector_17" d="M812.283 191.182C812.283 191.182 768.392 183.861 743.526 164.979C717.817 145.448 712.038 123.268 712.038 123.268C712.038 123.268 706.246 145.448 680.537 164.979C655.671 183.861 611.78 191.182 611.78 191.182" stroke="#231F20" stroke-width="13.6411" stroke-miterlimit="10"/>
<path id="Vector_18" d="M834.802 388.495C834.802 388.495 830.431 315.21 827.228 286.009C824.82 264.335 845.459 175.095 804.662 115.586C771.945 67.8649 725.742 66.4561 712.039 66.4561C698.335 66.4561 652.12 67.8649 619.403 115.598C578.606 175.107 599.222 264.347 596.837 286.021C593.634 315.222 589.263 388.507 589.263 388.507" stroke="#231F20" stroke-width="13.6411" stroke-miterlimit="10"/>
<path id="Vector_19" d="M801.169 188.449C798.861 199.135 797.65 210.029 797.557 220.961C797.726 240.228 799.652 281.699 777.7 320.063C759.253 352.31 735.977 364.737 712.038 364.725C688.099 364.713 664.811 352.31 646.364 320.063C624.412 281.699 626.338 240.192 626.507 220.961C626.414 210.029 625.203 199.135 622.895 188.449" stroke="#231F20" stroke-width="13.6411" stroke-miterlimit="10"/>
<path id="Vector_20" d="M648.339 232.99C648.339 232.99 655.215 216.613 671.664 216.613C689.798 216.613 695 232.99 695 232.99" stroke="#231F20" stroke-width="6.82055" stroke-miterlimit="10"/>
<path id="Vector_21" d="M682.752 218.673C683.771 220.345 684.383 222.233 684.54 224.185C684.697 226.137 684.394 228.099 683.655 229.913C682.917 231.726 681.763 233.341 680.286 234.628C678.81 235.915 677.053 236.838 675.155 237.322C673.258 237.807 671.273 237.839 669.361 237.418C667.449 236.996 665.662 236.132 664.144 234.894C662.626 233.657 661.42 232.081 660.621 230.292C659.823 228.504 659.456 226.553 659.548 224.597C659.62 222.927 660.029 221.288 660.752 219.781" stroke="#231F20" stroke-width="6.82055" stroke-miterlimit="10"/>
<path id="Vector_22" d="M694.553 205.993C694.553 205.993 664.124 191.856 644.894 211.712" stroke="#231F20" stroke-width="6.82055" stroke-miterlimit="10"/>
<path id="Vector_23" d="M728.57 276.399C728.57 280.59 695.492 280.59 695.492 276.399" stroke="#231F20" stroke-width="6.82055" stroke-miterlimit="10"/>
<path id="Vector_24" d="M775.726 232.99C775.726 232.99 768.85 216.613 752.401 216.613C734.267 216.613 729.065 232.99 729.065 232.99" stroke="#231F20" stroke-width="6.82055" stroke-miterlimit="10"/>
<path id="Vector_25" d="M741.274 218.673C740.255 220.345 739.643 222.233 739.486 224.185C739.329 226.137 739.632 228.099 740.371 229.913C741.11 231.726 742.264 233.341 743.74 234.628C745.216 235.915 746.974 236.838 748.871 237.322C750.768 237.807 752.753 237.839 754.665 237.418C756.578 236.996 758.365 236.132 759.883 234.894C761.4 233.657 762.607 232.081 763.405 230.292C764.203 228.504 764.571 226.553 764.478 224.597C764.407 222.927 763.997 221.288 763.274 219.781" stroke="#231F20" stroke-width="6.82055" stroke-miterlimit="10"/>
<path id="Vector_26" d="M729.509 205.993C729.509 205.993 759.938 191.856 779.169 211.712" stroke="#231F20" stroke-width="6.82055" stroke-miterlimit="10"/>
<path id="Vector_27" d="M743.6 305.601C729.415 310.839 720.155 313.211 712.039 313.211C703.923 313.211 694.651 310.803 680.466 305.601" stroke="#231F20" stroke-width="6.82055" stroke-miterlimit="10"/>
<path id="Vector_28" d="M739.457 305.746C739.457 305.746 725.007 297.606 720.997 297.835C716.987 298.064 712.038 301.231 712.038 301.231C712.038 301.231 707.137 298.064 703.067 297.835C698.997 297.606 684.607 305.746 684.607 305.746" stroke="#231F20" stroke-width="6.82055" stroke-miterlimit="10"/>
<path id="Vector_29" d="M725.513 324.735C716.779 327.754 707.285 327.754 698.552 324.735" stroke="#231F20" stroke-width="6.82055" stroke-miterlimit="10"/>
<path id="Vector_30" d="M922.872 571.768C922.872 571.768 951.628 663.006 934.805 692.869C913.781 730.198 842.989 776.534 842.989 776.534" stroke="#231F20" stroke-width="13.6411" stroke-miterlimit="10"/>
<path id="Vector_31" d="M855.163 590.131C855.163 590.131 873.286 655.781 871.058 662.38C868.204 670.809 835.15 711.485 835.15 711.485" stroke="#231F20" stroke-width="13.6411" stroke-miterlimit="10"/>
<path id="Vector_32" d="M756.905 616.525C739.071 612.118 723.417 609.938 712.038 609.938C700.659 609.938 684.993 612.118 667.159 616.525" stroke="#231F20" stroke-width="6.82055" stroke-miterlimit="10"/>
</g>
</g>
</svg>
