<svg width="1024" height="1024" viewBox="0 0 1024 1024" fill="none" xmlns="http://www.w3.org/2000/svg">
<g id="verb/i_like">
<g id="i like">
<path id="Vector" d="M672.58 453.039C672.58 638.707 593.515 873.938 425.066 873.938C256.617 873.938 179.756 661.189 179.756 475.52C179.756 289.852 258.182 149.508 425.066 149.508C591.95 149.508 672.58 267.322 672.58 453.039Z" fill="#FFEEC3" stroke="#231F20" stroke-width="1.19961" stroke-miterlimit="10"/>
<path id="Vector_2" d="M672.58 453.592C672.58 639.273 593.515 874.492 425.066 874.492C256.617 874.492 179.756 661.754 179.756 476.074C179.756 290.394 258.182 150.062 425.066 150.062C591.95 150.062 672.58 267.912 672.58 453.592Z" stroke="#231F20" stroke-width="16.9984" stroke-miterlimit="10"/>
<path id="Vector_3" d="M253.897 467.934C274.861 457.097 316.429 440.865 362.162 452.28C364.023 452.737 365.964 452.747 367.829 452.31C369.694 451.874 371.43 451.002 372.894 449.767C374.358 448.532 375.509 446.968 376.254 445.204C376.998 443.439 377.315 441.523 377.178 439.612C377.003 437.094 376.049 434.692 374.448 432.739C372.847 430.787 370.679 429.38 368.243 428.715C351.722 424.235 313.262 417.251 276.511 435.627C261.724 443.02 252.669 452.485 247.238 460.444C246.589 461.396 246.277 462.537 246.35 463.686C246.424 464.835 246.88 465.927 247.645 466.787C248.41 467.648 249.441 468.228 250.574 468.436C251.707 468.644 252.876 468.467 253.897 467.934Z" fill="#231F20"/>
<path id="Vector_4" d="M368.987 518.051C368.987 518.051 344.145 499.519 311.32 499.519C278.495 499.519 257.771 518.051 257.771 518.051" stroke="#231F20" stroke-width="10.1967" stroke-linecap="round" stroke-linejoin="round"/>
<path id="Vector_5" d="M330.672 502.325C332.409 505.476 333.29 509.028 333.227 512.626C333.164 516.224 332.159 519.743 330.312 522.832C328.465 525.921 325.841 528.471 322.701 530.23C319.562 531.989 316.016 532.894 312.418 532.855C308.819 532.816 305.294 531.835 302.192 530.009C299.091 528.184 296.523 525.577 294.743 522.45C292.963 519.322 292.034 515.782 292.048 512.184C292.062 508.585 293.019 505.053 294.824 501.939" stroke="#231F20" stroke-width="10.1967" stroke-linecap="round" stroke-linejoin="round"/>
<path id="Vector_6" d="M426.162 763.433C486.249 763.433 516.052 701.829 516.052 701.829C498.604 706.272 454.725 715.183 426.162 714.123C397.612 715.183 353.72 706.272 336.284 701.829C336.284 701.781 366.063 763.433 426.162 763.433Z" stroke="#231F20" stroke-width="10.1967" stroke-linecap="round" stroke-linejoin="round"/>
<path id="Vector_7" d="M598.464 467.934C577.5 457.097 535.92 440.865 490.199 452.28C488.339 452.741 486.397 452.755 484.53 452.321C482.664 451.888 480.927 451.02 479.46 449.787C477.994 448.554 476.84 446.992 476.092 445.228C475.345 443.464 475.025 441.548 475.159 439.637C475.332 437.118 476.286 434.715 477.887 432.762C479.488 430.809 481.657 429.403 484.093 428.739C500.614 424.26 539.075 417.276 575.826 435.651C590.613 443.045 599.656 452.509 605.099 460.469C605.729 461.419 606.027 462.55 605.947 463.688C605.866 464.825 605.412 465.903 604.655 466.755C603.898 467.607 602.88 468.185 601.76 468.398C600.64 468.612 599.481 468.448 598.464 467.934Z" fill="#231F20"/>
<path id="Vector_8" d="M483.346 518.051C483.346 518.051 508.175 499.519 541.013 499.519C573.85 499.519 594.549 518.051 594.549 518.051" stroke="#231F20" stroke-width="10.1967" stroke-linecap="round" stroke-linejoin="round"/>
<path id="Vector_9" d="M521.665 502.325C519.927 505.476 519.046 509.028 519.11 512.626C519.173 516.224 520.178 519.743 522.024 522.832C523.871 525.921 526.495 528.471 529.635 530.23C532.775 531.989 536.32 532.894 539.919 532.855C543.517 532.816 547.043 531.835 550.144 530.009C553.245 528.184 555.814 525.577 557.594 522.45C559.373 519.322 560.303 515.782 560.288 512.184C560.274 508.585 559.317 505.053 557.512 501.939" stroke="#231F20" stroke-width="10.1967" stroke-linecap="round" stroke-linejoin="round"/>
<path id="Vector_10" d="M471.114 651.616C467.826 663.164 446.97 674.699 426.163 674.699C405.355 674.699 384.511 663.164 381.224 651.616" stroke="#231F20" stroke-width="10.1967" stroke-linecap="round" stroke-linejoin="round"/>
<path id="Vector_11" d="M856.682 282.807C836.38 303.109 807.167 315.319 807.167 315.319C807.167 315.319 777.955 303.073 757.653 282.807C734.256 259.411 717.735 211.762 753.245 193.327C784.324 177.251 807.167 207.885 807.167 207.885C807.167 207.885 830.046 177.251 861.077 193.327C896.612 211.726 880.067 259.411 856.682 282.807Z" fill="#ED1D31"/>
<path id="Vector_12" d="M856.682 282.807C836.38 303.109 807.167 315.319 807.167 315.319C807.167 315.319 777.955 303.073 757.653 282.807C734.256 259.411 717.735 211.762 753.245 193.327C784.324 177.251 807.167 207.885 807.167 207.885C807.167 207.885 830.046 177.251 861.077 193.327C896.612 211.726 880.067 259.411 856.682 282.807Z" stroke="#231F20" stroke-width="13.6035" stroke-linecap="round" stroke-linejoin="round"/>
</g>
</g>
</svg>
