<svg width="1024" height="1024" viewBox="0 0 1024 1024" fill="none" xmlns="http://www.w3.org/2000/svg">
<g id="verb/i_want">
<g id="i want">
<path id="Vector" d="M99.5479 811.744L105.966 706.561C105.966 706.561 74.5497 582.943 80.8715 514.92C87.1933 446.898 120.139 410.099 120.139 410.099C120.139 410.099 194.796 443.996 211.944 438.035C221.937 434.623 231.549 430.184 240.626 424.789C240.626 424.789 286.878 484.732 298.859 535.511C310.841 586.29 316.464 811.78 316.464 811.78L99.5479 811.744Z" fill="#A9D7F3"/>
<path id="Vector_2" d="M115.598 509.272L251.824 665.27L438.672 713.003C438.672 713.003 439.708 682.719 443.284 674.001C446.861 665.282 453.411 650.568 453.411 650.568L286.034 600.15L175.722 460.733L115.598 509.272Z" fill="#A9D7F3"/>
<path id="Vector_3" d="M240.627 424.753L234.642 509.272L363.065 559.979L506.468 578.174L509.49 521.94L388.678 496.581L240.627 424.753Z" fill="#A9D7F3"/>
<path id="Vector_4" d="M438.673 713.004L467.031 731.825C467.031 731.825 573.864 767.444 585.712 749.478C597.561 731.512 604.485 690.655 604.485 690.655L525.625 660.069L548.167 639.984L528.347 622.897L451.281 655.469C446.549 671.099 442.418 690.679 438.673 713.004Z" fill="#FFEEC3"/>
<path id="Vector_5" d="M509.489 527.01C509.489 527.01 537.943 494.739 562.978 493.294C588.012 491.849 608.35 491.331 607.363 496.798C606.375 502.265 598.392 521.086 598.392 521.086L646.823 549.094C646.823 549.094 652.025 584.605 636.527 595.551C621.03 606.496 582.786 603.149 570.455 599.536C558.125 595.924 506.322 570.889 506.322 570.889L509.489 527.01Z" fill="#FFEEC3"/>
<path id="Vector_6" d="M120.139 410.099C120.139 410.099 129.965 402.32 120.368 369.037C110.771 335.754 85.4474 271.886 116.466 244.696C147.485 217.506 199.408 199.673 233.113 223.178C266.817 246.683 271.104 285.204 269.442 327.144C267.78 369.085 255.594 415.048 248.117 419.864C240.639 424.681 231.644 434.772 221.168 438.011C210.691 441.25 120.139 410.099 120.139 410.099Z" fill="#FFEEC3"/>
<path id="Vector_7" d="M193.483 410.689C193.483 410.689 211.16 423.935 242.986 420.418C274.812 416.902 290.719 244.504 229.343 221.565C194.543 208.536 109.963 209.523 104.207 279.364C99.1739 340.33 123.474 369.049 126.123 386.726C128.772 404.403 126.123 410.183 126.123 410.183C126.123 410.183 80.365 426.692 80.365 534.536C80.365 605.256 107.759 691.871 106.856 720.168C105.953 748.466 100.667 803.556 100.667 803.556" stroke="#231F20" stroke-width="16.9984" stroke-linecap="round" stroke-linejoin="round"/>
<path id="Vector_8" d="M315.212 803.472L313.213 684.056" stroke="#231F20" stroke-width="16.9984" stroke-linecap="round" stroke-linejoin="round"/>
<path id="Vector_9" d="M120.14 515.377C120.14 515.377 229.609 650.893 251.826 665.307C273.633 679.455 425.417 706.85 438.674 713.039C451.932 719.229 457.495 723.804 467.032 731.86C494.282 754.896 566.628 756.894 583.751 750.561C595.937 746.069 610.989 700.853 601.536 690.69C588.567 676.734 547.735 666.077 521.219 662.091C521.219 662.091 549.926 654.301 548.192 640.019C546.229 623.92 506.866 627.978 494.234 632.036C479.182 636.852 465.623 652.904 456.062 651.17C442.335 648.665 308.614 609.374 291.816 604.075C275.018 598.777 190.775 483.01 190.775 483.01" stroke="#231F20" stroke-width="16.9984" stroke-linecap="round" stroke-linejoin="round"/>
<path id="Vector_10" d="M245.491 460.733C245.491 460.733 305.494 542.748 311.72 610.048" stroke="#231F20" stroke-width="16.9984" stroke-linecap="round" stroke-linejoin="round"/>
<path id="Vector_11" d="M228.789 421.02C228.789 421.02 349.445 485.791 373.118 493.582C393.3 500.229 512.475 522.374 512.475 522.374C512.475 522.374 534.8 507.165 546.252 501.807C557.402 496.593 602.461 491.86 604.822 503.36C607.182 514.86 588.674 523.831 588.674 523.831C588.674 523.831 643.945 542.664 649.243 553.272C654.541 563.881 644.053 590.709 634.034 597.826C624.016 604.942 599.367 606.255 576.151 601.812C555.837 597.886 510.284 578.475 510.284 578.475C510.284 578.475 388.616 565.807 373.889 562.857C359.162 559.907 288.767 531.947 288.767 531.947" stroke="#231F20" stroke-width="16.9984" stroke-linecap="round" stroke-linejoin="round"/>
<path id="Vector_12" d="M126.123 410.099C126.123 410.099 175.493 438.035 211.943 438.035C237.88 438.035 228.801 421.02 228.801 421.02" stroke="#231F20" stroke-width="13.6035" stroke-linecap="round" stroke-linejoin="round"/>
<path id="Vector_13" d="M456.06 651.134C441.755 668.148 437.625 689.474 438.672 713.003" stroke="#231F20" stroke-width="13.6035" stroke-linecap="round" stroke-linejoin="round"/>
<path id="Vector_14" d="M512.524 522.374C508.128 534.608 502.601 560.437 510.332 578.439" stroke="#231F20" stroke-width="13.6035" stroke-linecap="round" stroke-linejoin="round"/>
<path id="Vector_15" d="M943.972 575.778H714.232V805.518H943.972V575.778Z" fill="#ED1D31" stroke="#231F20" stroke-width="16.9984" stroke-linejoin="round"/>
</g>
</g>
</svg>
