<svg width="1024" height="1024" viewBox="0 0 1024 1024" fill="none" xmlns="http://www.w3.org/2000/svg">
<g id="pronouns/my">
<g id="my">
<path id="Vector" d="M663.873 351.096C699.335 351.096 718.879 329.3 733.473 300.124C749.127 268.756 756.894 216.062 748.176 170.906C734.027 97.6575 663.885 100.331 663.885 100.331C663.885 100.331 593.731 97.6575 579.594 170.906C570.876 216.062 578.619 268.756 594.297 300.124C608.867 329.3 628.423 351.096 663.873 351.096Z" fill="#FFEEC3"/>
<path id="Vector_2" d="M865.412 377.779C839.391 305.734 733.473 300.123 733.473 300.123C733.473 300.123 726.248 351.095 663.873 351.095C601.498 351.095 594.273 300.123 594.273 300.123C594.273 300.123 488.308 305.734 462.334 377.779C439.563 440.816 411.278 582.654 430.328 647.329C449.377 712.004 498.687 693.207 498.687 693.207L494.678 758.701H833.045L829.047 693.207C829.047 693.207 878.417 712.004 897.407 647.329C916.396 582.654 888.183 440.816 865.412 377.779Z" fill="#A9D7F3"/>
<path id="Vector_3" d="M542.219 374.491L515.138 401.609V457.987C515.138 457.987 538.39 457.241 549.649 461.034C560.908 464.827 613.758 506.057 619.49 510.585C625.221 515.112 669.715 536.98 669.715 536.98C688.775 530.584 706.375 520.466 721.493 507.213C746.082 485.43 759.28 474.027 780.328 470.98C801.377 467.934 812.13 466.525 812.13 466.525V402.187L785.061 375.105L542.219 374.491Z" fill="#ED1D31"/>
<path id="Vector_4" d="M669.691 627.293L542.628 691.137H803.689L669.691 627.293Z" fill="#ED1D31"/>
<path id="Vector_5" d="M515.667 567.518V592.323L569.601 576.946L515.667 567.518Z" fill="#ED1D31"/>
<path id="Vector_6" d="M812.082 567.518V589.481L775.74 574.08L812.082 567.518Z" fill="#ED1D31"/>
<path id="Vector_7" d="M506.118 455.76C506.118 455.76 481.373 473.557 484.07 511.921C486.731 549.347 485.78 564.567 588.242 573.454L617.141 513.631C617.141 513.631 578.066 459.758 538.257 458.782C510.116 458.156 506.118 455.76 506.118 455.76Z" fill="#FFEEC3"/>
<path id="Vector_8" d="M698.663 524.926L730.44 585.627C730.44 585.627 747.78 573.176 769.081 570.599C790.383 568.023 827.447 565.843 833.467 554.103C839.488 542.362 858.851 500.819 819.511 459.89C819.511 459.89 784.964 467.054 766.95 473.653C751.874 479.168 698.663 524.926 698.663 524.926Z" fill="#FFEEC3"/>
<path id="Vector_9" d="M575.934 574.081C575.934 574.081 534.499 570.06 515.666 564.569C492.498 557.825 483.009 537.126 484.201 514.428C487.404 453.871 515.666 453.185 515.666 453.185V463.155C515.666 463.155 543.843 456.544 558.401 463.6C603.822 485.588 614.852 508.034 622.848 513.633C633.817 521.316 675.144 536.343 675.144 536.343" stroke="#231F20" stroke-width="17.0454" stroke-linecap="round" stroke-linejoin="round"/>
<path id="Vector_10" d="M502.685 693.209C502.685 693.209 493.726 732.765 494.762 755.127" stroke="#231F20" stroke-width="17.0454" stroke-linecap="round" stroke-linejoin="round"/>
<path id="Vector_11" d="M663.873 351.096C699.335 351.096 718.879 329.3 733.473 300.124C749.127 268.756 756.894 216.062 748.176 170.906C734.027 97.6575 663.885 100.331 663.885 100.331C663.885 100.331 593.731 97.6575 579.594 170.906C570.876 216.062 578.619 268.756 594.297 300.124C608.867 329.3 628.423 351.096 663.873 351.096Z" stroke="#231F20" stroke-width="17.0454" stroke-linejoin="round"/>
<path id="Vector_12" d="M669.69 627.292C716.11 644.824 815.079 706.994 862.981 698.048C914.169 688.499 907.45 574.742 895.637 508.43C881.356 428.209 872.831 375.84 844.665 343.834C806.65 300.605 733.474 300.123 733.474 300.123" stroke="#231F20" stroke-width="17.0454" stroke-linecap="round" stroke-linejoin="round"/>
<path id="Vector_13" d="M825.47 697.628C825.47 697.628 834.02 732.765 832.984 755.126" stroke="#231F20" stroke-width="17.0454" stroke-linecap="round" stroke-linejoin="round"/>
<path id="Vector_14" d="M515.667 589.314V564.568" stroke="#231F20" stroke-width="17.0454" stroke-linecap="round" stroke-linejoin="round"/>
<path id="Vector_15" d="M812.081 590.818V567.518" stroke="#231F20" stroke-width="17.0454" stroke-linecap="round" stroke-linejoin="round"/>
<path id="Vector_16" d="M812.081 691.137H515.667" stroke="#231F20" stroke-width="17.0454" stroke-linejoin="round"/>
<path id="Vector_17" d="M812.081 466.538V402.14H515.667V466.538" stroke="#231F20" stroke-width="17.0454" stroke-linejoin="round"/>
<path id="Vector_18" d="M812.081 402.14L785.529 374.541H542.218L515.667 402.14" stroke="#231F20" stroke-width="17.0454" stroke-linejoin="round"/>
<path id="Vector_19" d="M825.869 597.164C825.869 597.164 803.929 584.388 754.354 574.08" stroke="#231F20" stroke-width="17.0454" stroke-linecap="round" stroke-linejoin="round"/>
<path id="Vector_20" d="M501.746 597.804C501.746 597.804 517.34 590.507 544.445 583.751C609.53 567.519 649.098 547.494 675.144 536.344C686.8 531.347 717.289 514.561 726.26 505.253C738.302 492.669 754.353 470.994 786.841 469.128C795.31 468.725 803.751 467.869 812.128 466.563V456.605C812.128 456.605 839.234 456.605 843.003 506.565C844.713 529.227 838.68 559.909 815.512 566.664C796.679 572.143 772.729 570.373 758.7 573.155C729.307 578.995 712.027 604.583 656.082 635.12C594.128 668.933 479.553 719.869 447.414 679.108C414.156 636.963 419.502 573.829 431.303 507.516C445.596 427.296 454.964 375.878 483.081 343.872C521.097 300.643 594.273 300.161 594.273 300.161" stroke="#231F20" stroke-width="17.0454" stroke-linecap="round" stroke-linejoin="round"/>
<path id="Vector_21" d="M697.374 524.928L730.44 585.629" stroke="#231F20" stroke-width="17.0454" stroke-linecap="round" stroke-linejoin="round"/>
<path id="Vector_22" d="M619.464 510.587L590.83 570.337" stroke="#231F20" stroke-width="17.0454" stroke-linecap="round" stroke-linejoin="round"/>
<path id="Vector_23" d="M350.697 698.408L218.24 729.909L253.281 766.985L98.1382 913.59L121.583 938.396L276.726 791.79L311.767 828.866L350.697 698.408Z" fill="#231F20"/>
</g>
</g>
</svg>
