<svg width="1024" height="1024" viewBox="0 0 1024 1024" fill="none" xmlns="http://www.w3.org/2000/svg">
<g id="grammatical_elements/to">
<path id="Vector" d="M339.368 432.893V597.561C339.368 609.024 342.134 617.317 347.665 622.438C353.196 627.56 362.512 630.121 375.613 630.121H415.555V702.623H361.488C288.99 702.623 252.737 667.397 252.729 596.946V432.893H212.185V362.245H252.729V278.062H339.368V362.245H415.555V432.893H339.368Z" fill="#50264B"/>
<path id="Vector_2" d="M540.267 686.367C514.258 672.039 492.847 650.627 478.518 624.618C463.563 597.991 456.089 567.269 456.097 532.453C456.105 497.636 463.783 466.919 479.132 440.299C493.932 414.227 515.752 392.833 542.11 378.55C568.737 364.012 598.44 356.739 631.217 356.73C663.994 356.722 693.696 363.996 720.324 378.55C746.679 392.837 768.498 414.231 783.302 440.299C798.659 466.927 806.337 497.645 806.337 532.453C806.337 567.261 798.458 597.975 782.699 624.594C767.487 650.689 745.353 672.068 718.747 686.367C691.918 700.898 661.915 708.167 628.736 708.175C595.959 708.159 566.47 700.89 540.267 686.367ZM672.724 621.849C686.451 614.279 697.409 602.912 705.597 587.747C713.786 572.583 717.884 554.151 717.892 532.453C717.892 500.093 709.391 475.207 692.388 457.795C675.385 440.383 654.598 431.677 630.025 431.677C605.452 431.677 584.869 440.383 568.276 457.795C551.683 475.207 543.39 500.093 543.398 532.453C543.398 564.82 551.486 589.706 567.662 607.11C583.838 624.514 604.216 633.22 628.797 633.228C644.156 633.259 659.264 629.332 672.664 621.825L672.724 621.849Z" fill="#50264B"/>
</g>
</svg>
