<svg width="1024" height="1024" viewBox="0 0 1024 1024" fill="none" xmlns="http://www.w3.org/2000/svg">
<g id="verb/listen">
<g id="listen">
<g id="Vector">
<path d="M449.222 519.207C449.222 519.207 418.589 496.027 405.511 521.29C382.452 565.844 412.809 640.128 441.901 656.469C462.022 667.764 474.666 651.194 474.666 651.194" fill="#FFEEC3"/>
<path d="M449.222 519.207C449.222 519.207 418.589 496.027 405.511 521.29C382.452 565.844 412.809 640.128 441.901 656.469C462.022 667.764 474.666 651.194 474.666 651.194" stroke="#231F20" stroke-width="17.0386" stroke-miterlimit="10"/>
</g>
<path id="Vector_2" d="M451.691 546.686C451.691 546.686 426.91 519.207 402.188 529.141" stroke="#231F20" stroke-width="10.2208" stroke-miterlimit="10"/>
<g id="Vector_3">
<path d="M851.334 519.207C851.334 519.207 881.956 496.027 895.045 521.29C918.093 565.844 887.736 640.128 858.656 656.469C838.534 667.764 825.891 651.194 825.891 651.194" fill="#FFEEC3"/>
<path d="M851.334 519.207C851.334 519.207 881.956 496.027 895.045 521.29C918.093 565.844 887.736 640.128 858.656 656.469C838.534 667.764 825.891 651.194 825.891 651.194" stroke="#231F20" stroke-width="17.0386" stroke-miterlimit="10"/>
</g>
<path id="Vector_4" d="M848.93 546.686C848.93 546.686 873.711 519.183 898.505 529.117" stroke="#231F20" stroke-width="10.2208" stroke-miterlimit="10"/>
<path id="Vector_5" d="M852.852 463.599C852.852 616.021 787.936 809.119 649.663 809.119C511.39 809.119 448.28 634.517 448.28 482.047C448.28 329.577 512.654 214.424 649.663 214.424C786.671 214.424 852.852 311.178 852.852 463.599Z" fill="#FFEEC3"/>
<path id="Vector_6" d="M852.54 464.056C852.54 616.526 787.672 809.576 649.399 809.576C511.126 809.576 448.017 634.974 448.017 482.516C448.017 330.058 512.391 214.881 649.399 214.881C786.408 214.881 852.54 311.635 852.54 464.056Z" stroke="#231F20" stroke-width="17.0386" stroke-miterlimit="10"/>
<path id="Vector_7" d="M508.889 475.822C526.084 466.923 560.222 453.605 597.756 462.997C599.283 463.371 600.877 463.379 602.408 463.02C603.94 462.661 605.364 461.945 606.566 460.931C607.768 459.916 608.713 458.633 609.325 457.184C609.937 455.735 610.198 454.162 610.086 452.593C609.942 450.527 609.158 448.558 607.844 446.957C606.53 445.356 604.751 444.203 602.753 443.659C589.194 439.974 557.621 434.242 527.445 449.33C517.82 453.945 509.547 460.962 503.422 469.704C502.891 470.484 502.636 471.42 502.698 472.361C502.759 473.303 503.135 474.197 503.764 474.901C504.393 475.604 505.239 476.077 506.168 476.244C507.096 476.411 508.054 476.262 508.889 475.822Z" fill="#231F20"/>
<path id="Vector_8" d="M603.366 516.967C603.366 516.967 582.98 501.759 556.019 501.759C540.068 501.697 524.569 507.06 512.067 516.967" stroke="#231F20" stroke-width="10.2208" stroke-linecap="round" stroke-linejoin="round"/>
<path id="Vector_9" d="M571.974 504.059C573.381 506.64 574.088 509.543 574.026 512.482C573.964 515.421 573.135 518.292 571.621 520.811C570.106 523.331 567.96 525.41 565.394 526.844C562.828 528.277 559.931 529.015 556.992 528.984C554.053 528.952 551.173 528.153 548.638 526.665C546.103 525.178 544.001 523.053 542.541 520.502C541.081 517.951 540.313 515.063 540.313 512.123C540.314 509.184 541.083 506.296 542.544 503.746" stroke="#231F20" stroke-width="10.2208" stroke-linecap="round" stroke-linejoin="round"/>
<path id="Vector_10" d="M650.303 708.259C699.673 708.259 724.094 677.878 724.094 677.878C709.764 680.082 673.736 684.477 650.303 683.899C626.858 684.429 590.83 680.034 576.513 677.878C576.513 677.939 600.981 708.259 650.303 708.259Z" stroke="#231F20" stroke-width="10.2208" stroke-linecap="round" stroke-linejoin="round"/>
<path id="Vector_11" d="M791.717 475.822C774.51 466.923 740.384 453.605 702.839 462.997C701.312 463.372 699.718 463.38 698.187 463.021C696.656 462.661 695.232 461.945 694.031 460.931C692.83 459.916 691.886 458.632 691.276 457.183C690.665 455.734 690.407 454.162 690.52 452.593C690.661 450.526 691.443 448.555 692.758 446.953C694.072 445.352 695.854 444.2 697.853 443.659C711.412 439.974 742.985 434.242 773.149 449.33C782.792 453.942 791.086 460.959 797.232 469.704C797.767 470.489 798.022 471.431 797.958 472.378C797.894 473.326 797.513 474.224 796.877 474.929C796.242 475.634 795.387 476.106 794.452 476.268C793.516 476.429 792.553 476.272 791.717 475.822Z" fill="#231F20"/>
<path id="Vector_12" d="M697.206 516.967C697.206 516.967 717.592 501.759 744.541 501.759C760.493 501.697 775.991 507.06 788.493 516.967" stroke="#231F20" stroke-width="10.2208" stroke-linecap="round" stroke-linejoin="round"/>
<path id="Vector_13" d="M728.693 504.059C727.286 506.64 726.578 509.543 726.64 512.482C726.702 515.421 727.532 518.292 729.046 520.811C730.56 523.331 732.707 525.41 735.273 526.844C737.839 528.277 740.735 529.015 743.674 528.984C746.613 528.952 749.493 528.153 752.028 526.665C754.563 525.178 756.665 523.053 758.125 520.502C759.586 517.951 760.354 515.063 760.353 512.123C760.352 509.184 759.583 506.296 758.122 503.746" stroke="#231F20" stroke-width="10.2208" stroke-linecap="round" stroke-linejoin="round"/>
<path id="Vector_14" d="M687.2 626.618C684.49 636.094 667.379 645.559 650.304 645.559C633.23 645.559 616.106 636.094 613.409 626.618" stroke="#231F20" stroke-width="10.2208" stroke-linecap="round" stroke-linejoin="round"/>
<path id="Vector_15" d="M266.312 705.044C282.144 689.212 294.703 670.416 303.271 649.731C311.839 629.045 316.25 606.874 316.25 584.484C316.25 562.094 311.839 539.923 303.271 519.238C294.703 498.552 282.144 479.756 266.312 463.924" stroke="#231F20" stroke-width="20.4536" stroke-miterlimit="10" stroke-linecap="round"/>
<path id="Vector_16" d="M218.254 689.655C232.066 675.844 243.023 659.448 250.498 641.403C257.973 623.358 261.821 604.017 261.821 584.484C261.821 564.952 257.973 545.611 250.498 527.566C243.023 509.52 232.066 493.124 218.254 479.313" stroke="#231F20" stroke-width="20.4536" stroke-miterlimit="10" stroke-linecap="round"/>
<path id="Vector_17" d="M169.65 673.724C181.371 662.005 190.668 648.093 197.011 632.781C203.354 617.469 206.618 601.058 206.618 584.484C206.618 567.91 203.354 551.499 197.011 536.187C190.668 520.875 181.371 506.963 169.65 495.244" stroke="#231F20" stroke-width="20.4536" stroke-miterlimit="10" stroke-linecap="round"/>
<path id="Vector_18" d="M120.788 657.468C140.156 638.095 151.036 611.823 151.036 584.43C151.036 557.037 140.156 530.765 120.788 511.392" stroke="#231F20" stroke-width="20.4536" stroke-miterlimit="10" stroke-linecap="round"/>
</g>
</g>
</svg>
