<svg width="851" height="851" viewBox="0 0 851 851" fill="none" xmlns="http://www.w3.org/2000/svg">
<g id="adverb/that">
<g id="that">
<path id="Vector" d="M551.94 547.871V742.811H746.88V547.871H551.94Z" fill="#D10000" stroke="#231F20" stroke-width="17.01" stroke-linejoin="round"/>
<path id="Vector_2" d="M290.72 275.58C287.13 270.42 275.37 253.43 266.34 245.04C262.57 241.53 255.69 234.22 248.98 226.91L249.14 223.77C243.72 209.05 233.14 195.88 226.72 190.72C220.3 185.56 180.67 143.01 173.72 133.31C161.764 116.718 147.703 101.749 131.89 88.7798C123.89 82.2998 113.79 72.6298 104.43 63.2398C102.79 61.5798 101.17 59.9498 99.5901 58.3398L56.3101 118.47L94.3101 141.09L127 167.94L130.53 197.88L146.11 214.57C151.61 221.97 156.98 229.77 161.26 236.7C161.26 236.7 143.68 240.7 151.35 251.56C150.86 251.668 150.41 251.911 150.05 252.26C148.44 254.39 145.5 263.38 151.32 268.78C157.14 274.18 178.09 275.17 178.09 275.17C182.09 285.26 186.09 294.65 187.66 295.69C190.66 297.69 204.88 296.95 206.15 285.4C206.384 283.302 206.464 281.19 206.39 279.08C206.91 279.08 220.86 280.16 224.78 276.66C228.41 273.42 232.15 254.74 232.78 251.37C240.25 257.31 249.09 264.18 253.43 266.95C253.43 266.95 264.14 279.95 268.64 283.5C273.14 287.05 281.27 303.12 290.33 301.25C299.39 299.38 300.95 292.93 300.95 292.93C300.95 292.93 294.32 280.73 290.72 275.58ZM168.72 250.48C168.94 251.01 169.14 251.48 169.32 251.99C169.55 252.64 169.83 253.4 170.14 254.23L168.72 250.48ZM171.15 256.95C170.84 256.14 170.57 255.38 170.31 254.68L171.17 256.95H171.15Z" fill="#FFEEC3"/>
<path id="Vector_3" d="M171.14 257C170.83 256.19 170.56 255.43 170.3 254.73L171.14 257Z" fill="#FFA200"/>
<path id="Vector_4" d="M171.14 257C170.83 256.19 170.56 255.43 170.3 254.73L171.14 257Z" fill="#FFA200"/>
<path id="Vector_5" d="M99.5801 58.3398C110.18 69.1398 122.49 81.1598 131.88 88.7798C147.695 101.747 161.757 116.715 173.71 133.31C180.71 143.01 220.3 185.56 226.71 190.72C233.12 195.88 243.71 209.04 249.13 223.77" stroke="black" stroke-width="11.34" stroke-linecap="round" stroke-linejoin="round"/>
<path id="Vector_6" d="M124.29 150C124.29 150 128.53 191.92 140.56 207.36C152.59 222.8 165.68 242.22 169.29 252.04C172.9 261.86 184.64 293.77 187.62 295.74C190.6 297.71 204.84 297 206.11 285.45C207.38 273.9 203.84 262.74 199.11 254.72C194.38 246.7 193.84 232.59 193.84 232.59" stroke="black" stroke-width="11.34" stroke-linecap="round" stroke-linejoin="round"/>
<path id="Vector_7" d="M56.3101 118.471C70.3701 125.271 84.8301 133.261 94.3101 141.091C118.31 160.961 126.96 171.431 126.96 171.431" stroke="black" stroke-width="11.34" stroke-linecap="round" stroke-linejoin="round"/>
<path id="Vector_8" d="M230.67 206.6C230.67 206.6 257.32 236.66 266.34 245.04C275.36 253.42 287.13 270.42 290.73 275.58C294.33 280.74 300.93 292.93 300.93 292.93C300.93 292.93 299.38 299.37 290.31 301.25C281.24 303.13 273.11 287.08 268.62 283.51C264.13 279.94 253.4 267 253.4 267C245.09 261.7 220.19 241.26 220.19 241.26C220.19 241.26 205.29 238.26 195.86 239.85" stroke="black" stroke-width="11.34" stroke-linecap="round" stroke-linejoin="round"/>
<path id="Vector_9" d="M232.86 250.85C232.86 250.85 228.73 273.1 224.74 276.66C220.75 280.22 206.34 279.08 206.34 279.08" stroke="black" stroke-width="11.34" stroke-linecap="round" stroke-linejoin="round"/>
<path id="Vector_10" d="M168.69 250.469C168.69 250.469 151.64 250.129 150.02 252.259C148.4 254.389 145.47 263.379 151.28 268.779C157.09 274.179 178.05 275.169 178.05 275.169" stroke="black" stroke-width="11.34" stroke-linecap="round" stroke-linejoin="round"/>
<path id="Vector_11" d="M161.23 236.699C161.23 236.699 143.63 240.699 151.31 251.559" stroke="black" stroke-width="11.34" stroke-linecap="round" stroke-linejoin="round"/>
<path id="Vector_12" d="M206.18 240.43C206.18 240.43 205.95 248.04 203.32 249.83C201.97 250.74 197.39 251.05 197.39 251.05" stroke="black" stroke-width="11.34" stroke-linecap="round" stroke-linejoin="round"/>
<path id="Vector_13" d="M169.29 252C169.52 252.65 169.8 253.41 170.11 254.24L168.69 250.49C168.91 251 169.11 251.51 169.29 252Z" fill="#FFA200"/>
<path id="Vector_14" d="M171.14 257C170.83 256.19 170.56 255.43 170.3 254.73L171.14 257Z" fill="#FFA200"/>
</g>
</g>
</svg>
