<svg width="1024" height="1024" viewBox="0 0 1024 1024" fill="none" xmlns="http://www.w3.org/2000/svg">
<g id="pronouns/they">
<g id="they">
<path id="Vector" d="M526.635 348.746L528.177 348.517C529.835 358.523 530.677 368.647 530.693 378.789C530.693 412.337 519.519 560.617 518.375 575.668C518.375 583.026 533.077 589.504 544.529 595.85C551.682 599.788 555.776 606.687 553.644 613.912C551.862 619.933 538.063 623.365 531.091 619.5C518.977 612.817 526.852 615.104 517.845 611.721C497.061 603.858 493.088 607.627 491.655 583.809L489.174 567.733L468.8 393.926H458.456L437.612 568.528H437.672L435.902 582.05C434.457 605.881 430.472 602.088 409.688 609.963C400.681 613.334 408.58 611.059 396.442 617.742C389.458 621.619 375.659 618.211 373.876 612.166C371.757 604.857 375.851 598.006 382.992 594.104C394.082 587.975 408.7 581.617 409.664 574.549C408.207 557.088 396.238 411.578 396.238 378.356C396.231 367.89 396.87 357.435 398.152 347.048L399.127 347.168L526.635 348.758V348.746Z" fill="#7A7878"/>
<path id="Vector_2" d="M590.588 350.408C596.091 367.399 597.127 388.339 595.212 394.962C594.068 398.875 588.842 404.414 583.905 403.848C578.438 403.27 577.198 390.795 574.537 386.822C570.395 387.652 572.526 393.493 569.479 393.493C566.818 390.928 565.939 383.859 565.939 376.478C565.939 367.772 567.143 358.632 568.203 355.863L590.588 350.408ZM389.073 363.979C390.109 366.748 391.349 375.9 391.349 384.594C391.349 391.987 390.458 399.044 387.809 401.621C384.774 401.621 386.87 395.768 382.727 394.95C380.09 398.911 378.838 411.398 373.371 411.976C368.446 412.542 363.196 406.991 362.064 403.09C360.137 396.443 361.173 375.515 366.676 358.536L389.073 363.979ZM437.107 162.331C429.027 154.119 423.861 141.572 423.861 127.507C423.861 102.786 439.84 82.7246 459.552 82.7246C479.264 82.7246 495.231 102.786 495.231 127.507C495.231 140.656 490.728 152.457 483.551 160.657C477.217 167.882 468.8 172.29 459.552 172.29C451.039 172.29 443.236 168.557 437.107 162.331Z" fill="#FFEEC3"/>
<path id="Vector_3" d="M570.767 280.928C576.487 303.373 590.612 350.396 590.612 350.396L568.227 355.863L525.01 264.19L519.832 316.439C523.684 326.83 526.507 337.574 528.261 348.517L526.719 348.746L399.127 347.156L398.152 347.036C400.56 327.986 404.173 316.511 404.173 316.511L399.946 263.709L389.109 363.991L366.712 358.524C366.712 358.524 348.469 302.88 354.212 280.434C362.521 247.922 390 194.229 390 194.229C396.996 187.45 408.785 179.478 418.827 173.205C428.605 167.075 436.721 162.572 437.142 162.367C443.272 168.593 451.075 172.325 459.588 172.325C468.836 172.325 477.253 167.918 483.587 160.693L487.825 162.849C487.825 162.849 496.122 167.437 506.153 173.686C516.183 179.936 527.984 187.931 534.98 194.711C534.98 194.711 562.471 248.404 570.779 280.928H570.767Z" fill="#FFEEC3"/>
<path id="Vector_4" d="M437.107 162.331C429.027 154.119 423.861 141.572 423.861 127.507C423.861 102.786 439.84 82.7246 459.552 82.7246C479.264 82.7246 495.231 102.786 495.231 127.507C495.231 140.656 490.728 152.457 483.551 160.657C477.217 167.882 468.8 172.29 459.552 172.29C451.039 172.29 443.236 168.557 437.107 162.331Z" stroke="#231F20" stroke-width="13.6411"/>
<path id="Vector_5" d="M366.676 358.513C366.676 358.513 348.434 302.869 354.177 280.424C362.486 247.912 389.965 194.218 389.965 194.218C396.961 187.439 408.75 179.467 418.792 173.194C428.57 167.065 436.686 162.561 437.107 162.356" stroke="#231F20" stroke-width="13.6411"/>
<path id="Vector_6" d="M590.686 350.434C590.686 350.434 576.465 303.375 570.769 280.93C562.461 248.418 534.97 194.712 534.97 194.712C527.974 187.933 516.185 179.962 506.142 173.688C496.1 167.414 487.815 162.851 487.815 162.851M409.81 576.224C409.81 576.224 409.81 575.634 409.666 574.514C408.209 557.054 396.239 411.556 396.239 378.322C396.233 367.856 396.872 357.4 398.154 347.014C400.562 327.964 404.175 316.488 404.175 316.488L399.948 263.71L389.111 363.992C390.146 366.762 391.387 375.913 391.387 384.607C391.387 392.001 390.496 399.057 387.846 401.634C384.812 401.634 386.907 395.782 382.765 394.963C380.128 398.925 378.875 411.412 373.409 411.99C368.484 412.556 363.233 407.005 362.102 403.103C360.175 396.456 361.211 375.528 366.714 358.55L409.81 576.224Z" stroke="#231F20" stroke-width="13.6411"/>
<path id="Vector_7" d="M519.592 318.379L519.784 316.441L525.01 264.192L568.252 355.865C567.216 358.634 565.988 367.774 565.988 376.48C565.988 383.873 566.867 390.929 569.528 393.494C572.575 393.494 570.443 387.654 574.585 386.823C577.247 390.797 578.487 403.272 583.954 403.85C588.891 404.416 594.117 398.877 595.261 394.963C597.175 388.329 596.14 367.388 590.637 350.41" stroke="#231F20" stroke-width="13.6411"/>
<path id="Vector_8" d="M437.733 567.962V568.455L435.902 582.05C434.457 605.88 430.472 602.087 409.688 609.963C400.681 613.334 408.58 611.058 396.442 617.741C389.458 621.619 375.659 618.211 373.876 612.166C371.757 604.857 375.851 598.005 382.992 594.104C394.082 587.975 408.7 581.617 409.664 574.548C409.681 574.312 409.681 574.074 409.664 573.838M518.278 576.909C518.278 576.909 518.278 576.487 518.375 575.704C519.519 560.628 530.693 412.373 530.693 378.825C530.677 368.683 529.835 358.559 528.177 348.553C526.423 337.61 523.6 326.866 519.747 316.474C519.338 315.403 519.085 314.849 519.085 314.849L518.278 576.909Z" stroke="#231F20" stroke-width="13.6411"/>
<path id="Vector_9" d="M568.156 355.947L590.589 350.408M489.2 567.758L491.68 583.833C493.113 607.651 497.087 603.882 517.871 611.746C526.878 615.129 519.003 612.841 531.116 619.524C538.088 623.39 551.888 619.994 553.67 613.937C555.801 606.64 551.707 599.788 544.555 595.875C533.103 589.529 518.437 583.051 518.4 575.693L489.2 567.758ZM489.296 568.914L489.164 567.782L468.801 393.926H458.458L437.614 568.528L489.296 568.914ZM399.081 347.241L526.589 348.831L399.081 347.241ZM366.629 358.596L389.026 364.063L366.629 358.596Z" stroke="#231F20" stroke-width="13.6411"/>
<path id="Vector_10" d="M935.952 354.467C941.323 371.061 942.334 391.495 940.456 397.973C939.348 401.803 934.23 407.221 929.414 406.655C924.067 406.101 922.851 393.903 920.286 390.026C916.228 390.833 918.287 396.553 915.313 396.553C912.724 394.048 911.869 387.148 911.869 379.935C911.869 371.506 913.073 362.511 914.085 359.802L906.258 281.905C905.11 278.79 903.822 275.724 902.393 272.705L939.818 255.847L941.648 255.281C944.261 263.337 946.705 272.224 948.873 281.965C961.264 309.769 936.037 354.503 936.037 354.503L935.952 354.467Z" fill="#FFEEC3"/>
<path id="Vector_11" d="M777.605 271.463L780.471 265.37C779.284 267.282 778.199 269.256 777.22 271.282L740.831 254.352L737.953 253.473C752.126 210.701 770.73 191.772 770.73 191.772C784.228 178.695 815.97 166.69 816.764 166.389C822.785 172.409 830.359 176.118 838.68 176.118C847.001 176.118 854.816 172.373 860.849 166.136L862.257 166.605C862.257 166.605 894.637 178.755 908.304 191.989C908.304 191.989 927.354 211.376 941.587 255.243L939.793 255.773L902.368 272.631C901.242 270.205 899.971 267.849 898.563 265.575L906.233 281.831C913.121 300.447 919.984 333.465 904.716 372.829C904.403 373.66 904.066 374.49 903.728 375.321L903.235 375.117C890.121 390.891 865.509 396.852 842.834 396.852H839.932C814.44 396.852 790.08 392.191 775.751 374.936L775.257 375.117C774.908 374.286 774.583 373.467 774.27 372.648C759.013 333.284 765.841 300.254 772.753 281.65L777.569 271.475L777.605 271.463Z" fill="#FDCC18"/>
<path id="Vector_12" d="M903.752 375.395C904.09 374.564 904.427 373.733 904.74 372.902L906.341 373.48C913.446 397.299 910.556 441.358 895.745 484.696C895.744 513.191 893.522 541.644 889.098 569.793C890.037 575.573 900.537 585.953 908.87 594.021C914.542 599.524 916.589 607.002 912.627 613.36C909.352 618.622 895.456 618.357 889.893 612.974C880.259 603.654 887.075 607.785 879.501 602.354C862.016 589.746 856.465 591.155 858.765 577.885L861.776 563.159L849.409 503.493L841.919 398.852H837.103V398.563H842.834V396.889C865.509 396.889 890.121 390.929 903.235 375.154L903.728 375.359L903.752 375.395Z" fill="#2C308C"/>
<path id="Vector_13" d="M816.766 166.389C808.866 158.381 803.833 146.135 803.833 132.408C803.833 108.252 819.487 88.6729 838.681 88.6729C857.875 88.6729 873.529 108.252 873.529 132.456C873.529 146.027 868.592 158.165 860.85 166.172C854.829 172.41 847.11 176.155 838.681 176.155C830.252 176.155 822.75 172.542 816.766 166.425V166.389Z" fill="#FFEEC3"/>
<path id="Vector_14" d="M837.092 398.864L829.662 503.336L817.259 562.942L820.27 577.669C822.558 590.914 817.018 589.529 799.522 602.125C791.948 607.58 798.763 603.437 789.13 612.758C783.579 618.152 769.683 618.405 766.396 613.143C762.446 606.785 764.481 599.319 770.165 593.804C778.486 585.748 788.974 575.381 789.937 569.601C785.507 541.447 783.285 512.991 783.29 484.491C768.479 441.142 765.589 397.082 772.682 373.264L774.295 372.686C774.608 373.504 774.945 374.323 775.283 375.154L775.776 374.973C790.106 392.229 814.466 396.889 839.958 396.889H842.86V398.575H837.128V398.864H837.092Z" fill="#2C308C"/>
<path id="Vector_15" d="M740.83 254.353L777.22 271.283C775.567 274.656 774.092 278.112 772.801 281.639L738.278 354.84C739.301 357.549 740.493 366.472 740.493 374.961C740.493 382.186 739.638 389.086 737.037 391.59C734.075 391.59 736.134 385.871 732.076 385.064C729.511 388.953 728.283 401.127 722.949 401.693C718.132 402.259 713.014 396.877 711.907 393.011C710.016 386.533 711.028 366.098 716.41 349.493C716.41 349.493 717.879 309.455 730.258 281.663C732.345 272.125 734.922 262.7 737.977 253.426L740.854 254.305L740.83 254.353Z" fill="#FFEEC3"/>
<path id="Vector_16" d="M838.681 88.6729C857.947 88.6729 873.529 108.252 873.529 132.408C873.529 145.979 868.592 158.116 860.849 166.124C854.828 172.362 847.11 176.106 838.681 176.106" stroke="#231F20" stroke-width="13.6411"/>
<path id="Vector_17" d="M838.681 176.118C830.373 176.118 822.75 172.506 816.766 166.389C808.866 158.381 803.833 146.135 803.833 132.408C803.833 108.252 819.487 88.6729 838.681 88.6729" stroke="#231F20" stroke-width="13.6411"/>
<path id="Vector_18" d="M772.777 281.687L738.254 354.888C739.266 357.585 740.47 366.52 740.47 375.009C740.47 382.234 739.603 389.134 737.014 391.639C734.052 391.639 736.099 385.919 732.053 385.112C729.488 389.002 728.26 401.175 722.925 401.741C718.109 402.307 712.991 396.925 711.883 393.06C709.993 386.581 711.004 366.147 716.387 349.541C716.387 349.541 717.856 309.503 730.234 281.711C732.322 272.173 734.898 262.748 737.953 253.474C752.126 210.703 770.73 191.773 770.73 191.773C784.229 178.696 815.97 166.691 816.765 166.39" stroke="#231F20" stroke-width="13.6411"/>
<path id="Vector_19" d="M790.08 570.539C790.08 570.539 790.08 570.214 789.924 569.6C785.494 541.446 783.271 512.99 783.277 484.49C768.466 441.14 765.576 397.092 772.668 373.274M776.859 378.874C776.317 377.669 775.787 376.405 775.281 375.153C774.944 374.322 774.607 373.503 774.294 372.684C759.037 333.32 765.865 300.291 772.801 281.638C774.092 278.111 775.567 274.655 777.22 271.282C778.199 269.256 779.284 267.282 780.471 265.37L777.605 271.463L772.789 281.638L776.859 378.874Z" stroke="#231F20" stroke-width="13.6411"/>
<path id="Vector_20" d="M906.258 281.904L914.073 359.801C913.062 362.51 911.858 371.445 911.858 379.934C911.858 387.159 912.725 394.047 915.313 396.552C918.288 396.552 916.229 390.832 920.287 390.025C922.851 393.902 924.068 406.1 929.414 406.654C934.231 407.22 939.348 401.838 940.456 397.972C942.335 391.494 941.323 371.06 935.953 354.466C935.953 354.466 961.24 309.732 948.789 281.928C946.645 272.187 944.189 263.312 941.564 255.244C927.331 211.389 908.281 191.99 908.281 191.99C894.614 178.744 862.234 166.606 862.234 166.606M843.281 398.575H842.908H837.176V398.864L829.662 503.336L817.259 562.941L820.27 577.668C822.558 590.914 817.018 589.529 799.522 602.125C791.948 607.579 798.764 603.437 789.13 612.757C783.579 618.152 769.683 618.405 766.396 613.143C762.446 606.785 764.481 599.319 770.165 593.804C778.486 585.748 788.974 575.38 789.937 569.6C790.033 569.099 790.033 568.584 789.937 568.083L843.281 398.575ZM775.776 374.973C790.118 392.229 814.466 396.889 839.97 396.889L775.776 374.973Z" stroke="#231F20" stroke-width="13.6411"/>
<path id="Vector_21" d="M888.931 570.769C888.931 570.769 888.931 570.444 889.099 569.818C893.523 541.668 895.746 513.216 895.746 484.72C910.557 441.371 913.447 397.323 906.343 373.505M902.188 379.092C902.718 377.888 903.248 376.684 903.754 375.395C904.091 374.564 904.428 373.734 904.741 372.903C920.01 333.539 913.17 300.521 906.234 281.857C905.086 278.742 903.798 275.675 902.369 272.657C901.243 270.231 899.972 267.874 898.564 265.601L906.234 281.857L902.188 379.092Z" stroke="#231F20" stroke-width="13.6411"/>
<path id="Vector_22" d="M902.296 272.667L939.721 255.809M835.754 398.874H841.92L849.41 503.515L861.776 563.181L858.766 577.908C856.478 591.153 862.017 589.768 879.501 602.376C887.076 607.807 880.272 603.676 889.893 612.997C895.456 618.379 909.352 618.644 912.628 613.382C916.589 607.024 914.542 599.546 908.871 594.043C900.538 585.975 890.038 575.596 889.098 569.816C889.014 569.321 889.014 568.817 889.098 568.322L835.754 398.874ZM903.271 375.212C890.158 390.987 865.545 396.947 842.871 396.947C840.764 396.947 838.656 396.887 836.549 396.791L903.271 375.212ZM740.831 254.352L777.221 271.282L777.606 271.463L740.831 254.352Z" stroke="#231F20" stroke-width="13.6411"/>
<path id="Vector_23" d="M747.622 354.49C752.438 372.071 753.354 393.709 751.668 400.573C750.692 404.619 746.093 410.351 741.77 409.773C736.953 409.183 735.881 396.274 733.569 392.156C729.957 393.023 731.811 399.056 729.126 399.056C726.802 396.419 726.031 389.134 726.031 381.499C726.031 372.492 727.115 363.015 728.03 360.138L707.56 260.988L710.702 259.242L734.786 248.513L736.339 247.898L747.525 354.49H747.622Z" fill="#FFEEC3"/>
<path id="Vector_24" d="M718.302 187.992L736.436 247.899L734.883 248.513L710.8 259.242L707.657 260.988L700.541 244.274L691.401 307.239L690.51 313.368H620.404L619.284 313.585L609.157 243.744L601.174 262.505L600.813 262.312L572.828 248.597L591.324 187.474C597.465 180.466 607.785 172.23 616.611 165.727C625.185 159.405 632.265 154.733 632.65 154.504C638.033 160.947 644.873 164.812 652.314 164.812C660.394 164.812 667.752 160.272 673.303 152.771C679.139 156.624 684.879 160.585 690.522 164.656C700.601 171.88 712.197 180.936 718.338 187.944L718.302 187.992Z" fill="#6EBE44"/>
<path id="Vector_25" d="M613.155 580.463V580.403C613.149 580.339 613.149 580.274 613.155 580.21C612.264 559.595 605.931 411.954 605.931 377.912C605.931 339.56 619.357 313.996 619.357 313.996V313.611L620.477 313.394H690.462L691.353 307.265H691.642L692.064 314.405C692.064 314.405 705.502 339.969 705.502 378.334C705.502 412.351 699.132 560.161 698.277 580.632C697.807 586.424 712.522 598.465 720.566 607.677C725.66 613.517 727.49 621.416 723.95 628.147C721.012 633.723 708.536 633.446 703.551 627.75C694.918 617.876 701.035 622.259 694.243 616.479C678.589 603.149 673.568 604.642 675.627 590.566L678.324 574.972L660.37 394.024H651.315L633.06 574.514L635.794 590.096C637.841 604.173 632.867 602.668 617.189 616.01C610.386 621.777 616.503 617.394 607.869 627.268C602.884 632.976 590.421 633.289 587.471 627.678C583.931 620.935 585.761 613.023 590.855 607.207C598.79 598.14 613.18 586.303 613.18 580.475L613.155 580.463Z" fill="#C8C8C8"/>
<path id="Vector_26" d="M673.266 152.818C667.715 160.271 660.357 164.859 652.277 164.859C644.836 164.859 637.996 160.994 632.626 154.552C625.545 146.123 621.017 133.082 621.017 118.547C621.017 92.9712 635.01 72.2236 652.325 72.2236C669.641 72.2236 683.633 92.9712 683.633 118.547C683.633 132.154 679.672 144.389 673.362 152.866L673.266 152.818ZM601.173 262.504L588.903 361.245C589.818 364.11 590.89 373.575 590.89 382.582C590.89 390.216 590.119 397.526 587.795 400.175C585.134 400.175 586.976 394.154 583.34 393.275C581.04 397.381 579.944 410.29 575.151 410.892C570.828 411.47 566.241 405.726 565.253 401.692C563.555 394.816 564.47 373.178 569.287 355.597L572.827 248.656L600.872 262.311L601.233 262.504H601.173Z" fill="#FFEEC3"/>
<path id="Vector_27" d="M632.626 154.505C625.546 146.076 621.018 133.035 621.018 118.501C621.018 92.9243 635.01 72.1768 652.326 72.1768C669.642 72.1768 683.634 92.9243 683.634 118.501C683.634 132.107 679.672 144.342 673.363 152.819C667.811 160.273 660.454 164.86 652.374 164.86C644.836 164.812 637.997 160.947 632.626 154.505Z" stroke="#231F20" stroke-width="13.6411"/>
<path id="Vector_28" d="M569.287 355.537L572.827 248.596L591.323 187.474C597.464 180.465 607.783 172.229 616.61 165.727C625.183 159.405 632.264 154.733 632.661 154.504" stroke="#231F20" stroke-width="13.6411"/>
<path id="Vector_29" d="M747.622 354.492L736.436 247.9L718.301 187.993C712.172 180.985 700.564 171.966 690.485 164.705C684.866 160.635 679.126 156.673 673.266 152.82L671.869 151.917M613.142 580.15C612.251 559.535 605.917 411.894 605.917 377.852C605.917 339.5 619.344 313.936 619.344 313.936V313.551L609.217 243.71L601.173 262.506L588.903 361.247C589.806 364.125 590.89 373.578 590.89 382.585C590.89 390.219 590.107 397.528 587.795 400.177C585.134 400.177 586.976 394.157 583.34 393.278C581.04 397.384 579.944 410.292 575.151 410.894C570.828 411.472 566.229 405.728 565.253 401.695C563.555 394.819 564.47 373.18 569.287 355.6L613.142 580.15ZM613.154 580.403C613.148 580.339 613.148 580.274 613.154 580.21V580.403ZM613.263 582.619L613.166 580.535L613.263 582.619Z" stroke="#231F20" stroke-width="13.6411"/>
<path id="Vector_30" d="M690.304 314.477L690.46 313.369L691.351 307.24L700.491 244.274L707.607 260.988L728.078 360.138C727.163 363.016 726.079 372.493 726.079 381.5C726.079 389.134 726.85 396.419 729.174 399.056C731.859 399.056 729.993 393.036 733.617 392.157C735.929 396.263 737.025 409.183 741.817 409.773C746.14 410.351 750.74 404.619 751.716 400.574C753.401 393.71 752.498 372.071 747.67 354.491" stroke="#231F20" stroke-width="13.6411"/>
<path id="Vector_31" d="M698.143 583.027C698.143 583.027 698.143 582.208 698.239 580.678C699.13 560.208 705.464 412.386 705.464 378.381C705.464 340.016 692.026 314.452 692.026 314.452L691.604 307.312" stroke="#231F20" stroke-width="13.6411"/>
<path id="Vector_32" d="M710.813 259.242L734.896 248.513M698.289 580.401V580.666C697.808 586.422 712.523 598.464 720.566 607.676C725.66 613.516 727.49 621.415 723.95 628.146C721.012 633.721 708.537 633.444 703.552 627.749C694.918 617.875 701.035 622.258 694.243 616.478C678.589 603.148 673.568 604.641 675.627 590.565L678.325 574.971L660.371 394.023H651.315L633.06 574.513L635.794 590.095C637.841 604.171 632.868 602.666 617.19 616.008C610.386 621.776 616.503 617.393 607.869 627.267C602.884 632.975 590.421 633.288 587.471 627.677C583.931 620.933 585.761 613.022 590.855 607.206C598.79 598.139 613.18 586.302 613.18 580.474V580.401C613.173 580.337 613.173 580.273 613.18 580.209V580.209C613.18 580.149 613.18 580.076 613.18 580.016L698.289 580.401ZM620.465 313.429H690.896H620.465ZM572.72 248.573L572.889 248.657L600.873 262.312L572.72 248.573Z" stroke="#231F20" stroke-width="13.6411"/>
<path id="Vector_33" d="M109.867 925.993L279.484 765.708" stroke="#231F20" stroke-width="34.1027" stroke-miterlimit="10"/>
<path id="Vector_34" d="M311.767 828.867L350.698 698.409L218.241 729.91L311.767 828.867Z" fill="#231F20"/>
</g>
</g>
</svg>
