<svg width="1024" height="1024" viewBox="0 0 1024 1024" fill="none" xmlns="http://www.w3.org/2000/svg">
<g id="verb/dont_like">
<g id="i dont like that">
<path id="Vector" d="M659.611 283.53C660.539 230.547 662.959 179.106 665.849 128.122C685.368 126.761 708.909 130.831 728.754 129.687C741.867 128.941 757.413 117.538 772.79 110.782C789.467 103.557 808.035 98.0423 826.254 96.6334C846.05 95.0921 875.179 93.021 892.314 107.639C898.889 113.239 899.611 123.293 904.897 132.806C910.509 142.933 924.501 150.953 926.909 161.116C928.439 167.594 924.645 176.397 926.909 183.128C930.63 194.17 947.536 198.433 948.933 216.158C949.824 227.633 946.007 236.074 939.493 246.045C952.823 259.868 956.748 297.908 941.07 308.938C929.269 317.234 916.397 309.371 900.129 308.938C871.651 308.179 841.125 329.938 841.932 359.271C842.317 372.926 854.251 387.894 860.813 401.73C870.447 422.044 879.827 440.817 874.962 470.932C872.758 484.563 867.099 494.702 857.67 494.51C845.93 494.281 830.986 467.717 827.783 448.908C825.014 432.604 808.132 414.843 799.474 401.73C791.827 390.146 775.993 377.888 768.033 365.605C749.2 336.501 742.433 304.109 711.787 286.769C694.376 285.603 676.904 285.671 659.503 286.974C659.503 285.83 659.503 284.686 659.503 283.542L659.611 283.53Z" fill="#FFEEC3"/>
<path id="Vector_2" d="M665.897 128.122C685.103 126.761 708.957 130.831 728.802 129.687C741.867 128.941 757.413 117.538 772.79 110.782C789.467 103.557 808.035 98.0423 826.254 96.6334C846.05 95.0921 875.179 93.021 892.314 107.639C898.889 113.239 899.611 123.293 904.897 132.806C910.509 142.933 924.501 150.953 926.909 161.116C928.439 167.594 924.645 176.397 926.909 183.128C930.63 194.17 947.536 198.433 948.933 216.158C949.824 227.633 946.007 236.074 939.493 246.045C952.823 259.868 956.748 297.908 941.07 308.938C929.269 317.234 916.397 309.371 900.129 308.938C871.651 308.179 841.125 329.938 841.932 359.271C842.317 372.926 854.251 387.894 860.813 401.73C870.446 422.044 879.827 440.817 874.962 470.932C872.758 484.563 867.099 494.702 857.67 494.51C845.93 494.281 830.986 467.717 827.783 448.908C825.014 432.604 808.132 414.843 799.474 401.73C791.827 390.146 775.993 377.888 768.033 365.605C749.2 336.501 742.433 304.109 711.787 286.769C694.376 285.603 676.904 285.671 659.503 286.974" stroke="#231F20" stroke-width="13.6357"/>
<path id="Vector_3" d="M939.493 246.069L881.694 258.255M906.247 135.022L849.651 150.182L906.247 135.022ZM929.125 187.391L864.39 200.877L929.125 187.391Z" stroke="#231F20" stroke-width="13.6357"/>
<path id="Vector_4" d="M825.699 445.067C846.242 425.163 859.054 475.749 860.391 493.101" stroke="#231F20" stroke-width="6.81786"/>
<path id="Vector_5" d="M599.259 506.708C599.259 697.241 518.124 938.614 345.267 938.614C172.411 938.614 93.5391 720.313 93.5391 529.828C93.5391 339.343 174.025 195.302 345.267 195.302C516.51 195.302 599.259 316.187 599.259 506.708Z" fill="#FFEEC3"/>
<path id="Vector_6" d="M599.259 506.708C599.259 697.241 518.124 938.614 345.267 938.614C172.411 938.614 93.5391 720.313 93.5391 529.828C93.5391 339.343 174.025 195.302 345.267 195.302C516.51 195.302 599.259 316.187 599.259 506.708Z" stroke="#231F20" stroke-width="23.8565" stroke-miterlimit="10"/>
<path id="Vector_7" d="M163.764 541.52C181.754 525.3 218.806 498.387 267.165 497.845C269.131 497.816 271.062 497.322 272.801 496.403C274.539 495.484 276.035 494.167 277.167 492.559C278.3 490.952 279.035 489.099 279.314 487.153C279.593 485.206 279.408 483.222 278.773 481.361C277.946 478.907 276.376 476.772 274.281 475.251C272.186 473.73 269.67 472.898 267.081 472.871C249.512 472.727 209.522 475.797 177.817 503.589C165.065 514.776 158.55 526.54 155.215 535.837C154.826 536.947 154.819 538.156 155.193 539.271C155.568 540.387 156.303 541.346 157.283 541.998C158.263 542.649 159.432 542.956 160.606 542.869C161.779 542.783 162.89 542.308 163.764 541.52Z" fill="#231F20"/>
<path id="Vector_8" d="M287.792 575.646C287.792 575.646 262.3 551.033 228.608 551.033C194.915 551.033 173.662 575.646 173.662 575.646" stroke="#231F20" stroke-width="10.2208" stroke-linecap="round" stroke-linejoin="round"/>
<path id="Vector_9" d="M247.431 555.115C249.538 558.244 250.769 561.881 250.996 565.647C251.223 569.414 250.437 573.172 248.721 576.532C247.005 579.892 244.42 582.731 241.235 584.755C238.051 586.779 234.383 587.913 230.612 588.039C226.841 588.166 223.105 587.281 219.791 585.476C216.478 583.671 213.708 581.012 211.77 577.775C209.832 574.537 208.796 570.84 208.769 567.067C208.743 563.294 209.727 559.583 211.619 556.319" stroke="#231F20" stroke-width="10.2208" stroke-linecap="round" stroke-linejoin="round"/>
<path id="Vector_10" d="M346.4 785.253C400.587 784.831 428.933 800.606 438.638 809.095C438.638 809.095 408.053 804.748 346.4 804.748C284.748 804.748 254.162 809.095 254.162 809.095C263.856 800.606 292.201 784.831 346.4 785.253Z" stroke="#231F20" stroke-width="10.2208" stroke-linecap="round" stroke-linejoin="round"/>
<path id="Vector_11" d="M529.068 541.52C511.078 525.3 474.027 498.387 425.668 497.845C423.702 497.816 421.771 497.322 420.032 496.403C418.294 495.484 416.798 494.167 415.665 492.559C414.533 490.952 413.798 489.099 413.519 487.153C413.24 485.206 413.425 483.222 414.06 481.361C414.887 478.907 416.457 476.772 418.552 475.251C420.647 473.73 423.163 472.898 425.752 472.871C443.321 472.727 483.311 475.797 515.016 503.589C527.768 514.776 534.282 526.54 537.618 535.837C538.006 536.947 538.014 538.156 537.64 539.271C537.265 540.387 536.53 541.346 535.55 541.998C534.57 542.649 533.401 542.956 532.227 542.869C531.054 542.783 529.942 542.308 529.068 541.52Z" fill="#231F20"/>
<path id="Vector_12" d="M405.066 575.646C405.066 575.646 430.558 551.033 464.251 551.033C497.943 551.033 519.196 575.646 519.196 575.646" stroke="#231F20" stroke-width="10.2208" stroke-linecap="round" stroke-linejoin="round"/>
<path id="Vector_13" d="M445.368 555.115C443.258 558.244 442.025 561.881 441.797 565.648C441.568 569.415 442.352 573.175 444.068 576.536C445.784 579.898 448.369 582.738 451.554 584.763C454.739 586.788 458.408 587.922 462.18 588.049C465.952 588.176 469.689 587.29 473.003 585.484C476.317 583.678 479.087 581.018 481.025 577.78C482.963 574.541 483.998 570.843 484.023 567.069C484.048 563.295 483.062 559.583 481.168 556.319" stroke="#231F20" stroke-width="10.2208" stroke-linecap="round" stroke-linejoin="round"/>
<path id="Vector_14" d="M392.556 709.909C389.172 721.758 367.786 733.594 346.436 733.594C325.087 733.594 303.689 721.758 300.317 709.909" stroke="#231F20" stroke-width="10.2208" stroke-linecap="round" stroke-linejoin="round"/>
</g>
</g>
</svg>
